<?xml version="1.0" encoding="UTF-8" standalone="no"?>
<!-- Created with Inkscape (http://www.inkscape.org/) -->

<svg
   width="500"
   height="500"
   viewBox="0 0 132.29167 132.29166"
   version="1.1"
   id="svg5"
   inkscape:version="1.1.1 (3bf5ae0d25, 2021-09-20, custom)"
   sodipodi:docname="openid-logo.svg"
   xmlns:inkscape="http://www.inkscape.org/namespaces/inkscape"
   xmlns:sodipodi="http://sodipodi.sourceforge.net/DTD/sodipodi-0.dtd"
   xmlns="http://www.w3.org/2000/svg"
   xmlns:svg="http://www.w3.org/2000/svg">
  <sodipodi:namedview
     id="namedview7"
     pagecolor="#ffffff"
     bordercolor="#111111"
     borderopacity="1"
     inkscape:pageshadow="0"
     inkscape:pageopacity="0"
     inkscape:pagecheckerboard="1"
     inkscape:document-units="px"
     showgrid="false"
     inkscape:zoom="0.74029882"
     inkscape:cx="-99.959635"
     inkscape:cy="397.13693"
     inkscape:window-width="1920"
     inkscape:window-height="1048"
     inkscape:window-x="2560"
     inkscape:window-y="360"
     inkscape:window-maximized="1"
     inkscape:current-layer="layer1"
     units="px" />
  <defs
     id="defs2" />
  <g
     inkscape:label="Livello 1"
     inkscape:groupmode="layer"
     id="layer1"
     transform="translate(0.04942478,-40.466287)">
    <g
       id="g508"
       transform="matrix(1.776194,0,0,1.776194,243.90436,-42.198805)">
      <path
         d="m -103.47969,54.99662 v 56.42296 7.07704 l 11.288889,-5.31315 V 49.481645 Z m 0,0"
         fill="#f7941b"
         id="path181"
         style="stroke-width:0.352778" />
      <path
         d="m -64.384045,73.623216 1.55822,16.1798 -21.830948,-4.7498"
         fill="#bcbec0"
         id="path183"
         style="stroke-width:0.352778" />
      <path
         d="m -126.05747,94.328591 c 0,-7.998883 8.71608,-14.735175 20.59623,-16.791517 v -7.170208 c -18.17159,2.196394 -31.88512,12.088636 -31.88512,23.961725 0,12.301009 14.71966,22.475119 33.86667,24.168099 v -7.07707 c -12.88203,-1.61502 -22.57778,-8.65294 -22.57778,-17.091029 m 35.848222,-23.958903 v 7.167386 c 4.726869,0.818092 8.955264,2.373136 12.329971,4.459111 l 7.982268,-4.933244 c -5.439833,-3.362325 -12.460817,-5.744281 -20.312239,-6.693253"
         fill="#bcbec0"
         id="path185"
         style="stroke-width:0.352778" />
      <path
         d="m -103.47969,54.99662 v 56.42296 7.07704 l 11.288889,-5.31315 V 49.481645 Z m 0,0"
         fill="#f7941b"
         id="path199"
         style="stroke-width:0.352778" />
      <path
         d="m -64.384045,73.623216 1.55822,16.1798 -21.830948,-4.7498"
         fill="#bcbec0"
         id="path201"
         style="stroke-width:0.352778" />
      <path
         d="m -126.05747,94.328591 c 0,-7.998883 8.71608,-14.735175 20.59623,-16.791517 v -7.170208 c -18.17159,2.196394 -31.88512,12.088636 -31.88512,23.961725 0,12.301009 14.71966,22.475119 33.86667,24.168099 v -7.07707 c -12.88203,-1.61502 -22.57778,-8.65294 -22.57778,-17.091029 m 35.848222,-23.958903 v 7.167386 c 4.726869,0.818092 8.955264,2.373136 12.329971,4.459111 l 7.982268,-4.933244 c -5.439833,-3.362325 -12.460817,-5.744281 -20.312239,-6.693253"
         fill="#bcbec0"
         id="path203"
         style="stroke-width:0.352778" />
    </g>
  </g>
</svg>
